<svg width="1108" height="1976" viewBox="0 0 1108 1976" fill="none" xmlns="http://www.w3.org/2000/svg">
<rect width="1108" height="1976"/>
<path d="M4.5 556.5L554 7L1103.5 556.5V1419.5L554 1969L4.5 1419.5V556.5Z" fill="#21DD5D" stroke="black" stroke-width="6"/>
<path d="M169 685.098L554 300L939 685.098V1289.9L554 1675L169 1289.9V685.098Z" fill="#07EC50" stroke="black" stroke-width="5"/>
<path d="M554.5 295V7L6 553.5L170.5 679L554.5 295Z" fill="#96FF9B" stroke="black" stroke-width="5"/>
<path d="M555 1681L555 1969L1103.5 1422.5L939 1297L555 1681Z" fill="#0AB942" stroke="black" stroke-width="5"/>
<path d="M555 295L555 6.99995L1103.5 553.5L939 679L555 295Z" fill="#0A4D0D" stroke="black" stroke-width="5"/>
<path d="M555 1676.29V1969L4 1413.55L169.25 1286L555 1676.29Z" fill="#0A4D0D" stroke="black" stroke-width="5"/>
<path d="M169 679.708L8 548V1420L169 1288.29V679.708Z" fill="#0AB942" stroke="black" stroke-width="5"/>
<path d="M939 1292.29L1100 1424L1100 552L939 683.708L939 1292.29Z" fill="#0A7D2F" stroke="black" stroke-width="5"/>
</svg>
