<svg width="1060" height="1447" viewBox="0 0 1060 1447" fill="none" xmlns="http://www.w3.org/2000/svg">
<path d="M51.2407 740C102.556 688.4 123.403 596.167 127.412 556.5C142.947 502 860.561 417.5 860.561 489.5C860.561 561.5 962.29 730.5 949.762 793.5C917.189 847 459.158 881.5 397.52 874.5C335.881 867.5 221.624 893 150.464 892C79.3038 891 76.2971 849 66.2745 849C58.2565 849 25.8502 858 10.6494 862.5C2.63135 855.5 -12.9036 804.5 51.2407 740Z" fill="#8CECF5" stroke="black" stroke-width="5"/>
<path d="M351.63 821.657C377.891 753.128 465.82 742.995 506.503 746.494C578.552 728.69 631.355 758.391 648.75 775.467C695.184 829.635 791.671 939.65 806.148 946.368C820.625 953.086 848.934 943.569 861.279 937.97C875.757 959.133 838.694 974.222 818.353 979.12C826.629 984.999 841.078 997.848 832.661 1002.22C824.244 1006.58 799.414 993.957 788.051 987.099L611.294 827.115V927.052C611.294 948.551 602.316 979.12 597.827 991.718C607.254 995.413 613.819 1011.45 615.924 1019.01L556.163 1333.94L538.908 1399.02C519.044 1439.67 492.504 1410.36 483.356 1395.66C469.241 1372.99 465.399 1350.88 462.734 1333.94C452.634 1320.5 417.282 1025.31 422.753 1019.01C427.13 1013.97 427.944 998.716 427.803 991.718C423.427 977.609 412.513 917.535 407.603 889.261L334.796 1040.85C331.148 1057.08 322.423 1089.47 316.699 1089.14C310.975 1088.8 309.825 1079.48 309.965 1074.86C299.444 1080.32 238 1073.6 238 1069.4C238 1065.2 272.089 1051.76 276.718 1048.4C280.422 1045.72 289.203 1034.97 293.131 1029.93L351.63 821.657Z" fill="#FFE2BB" stroke="black" stroke-width="5"/>
<path d="M528.387 1309.16L538.066 1399.02" stroke="black" stroke-width="5"/>
<path d="M513.472 1000.96C510.118 1003.85 505.423 1012.1 513.472 1021.95C517.74 1017.85 523.716 1007.91 513.472 1000.96Z" fill="#C6AD8B" stroke="black" stroke-width="3"/>
<path d="M559.951 1333.1L572.155 1307.48L526.282 1294.05V1317.14L559.951 1333.1Z" fill="#E3DC1A" stroke="black" stroke-width="5"/>
<path d="M441.692 1332.26L433.695 1310L525.02 1294.47L528.387 1313.36C516.603 1325.12 465.68 1330.86 441.692 1332.26Z" fill="#E3DC1A" stroke="black" stroke-width="5"/>
<path d="M397.502 1138.68C382.352 1124.58 403.815 1084.38 416.441 1066.04L623.499 1053.02C637.303 1088.97 632.898 1110.27 628.97 1116.43C632.337 1122.48 630.373 1168.5 628.97 1190.75C617.186 1219.87 594.292 1279.77 596.985 1286.49C599.679 1293.21 604.28 1299.09 606.244 1301.19C587.39 1314.62 544.243 1300.91 525.027 1292.37C516.816 1300.3 506.937 1306.6 495.14 1310C437.483 1320.5 374.355 1291.11 383.193 1278.09C390.264 1267.68 380.247 1223.92 374.355 1203.35C387.149 1192.6 395.117 1155.76 397.502 1138.68Z" fill="#7948DB"/>
<path d="M537.645 1122.73C542.359 1128.1 539.609 1157.44 537.645 1171.44L560.371 1214.27C558.294 1233.85 548.449 1269.74 525.027 1292.37M525.027 1292.37C516.816 1300.3 506.937 1306.6 495.14 1310C437.483 1320.5 374.355 1291.11 383.193 1278.09C390.264 1267.68 380.247 1223.92 374.355 1203.35C387.149 1192.6 395.117 1155.76 397.502 1138.68C382.352 1124.58 403.815 1084.38 416.441 1066.04L623.499 1053.02C637.303 1088.97 632.898 1110.27 628.97 1116.43C632.337 1122.48 630.373 1168.5 628.97 1190.75C617.186 1219.87 594.292 1279.77 596.985 1286.49C599.679 1293.21 604.28 1299.09 606.244 1301.19C587.39 1314.62 544.243 1300.91 525.027 1292.37Z" stroke="black" stroke-width="5"/>
<path d="M628.549 1133.22C578.047 1147 477.885 1096.13 434.116 1068.98C494.999 1058.34 618.28 1040.26 624.341 1053.02C630.401 1065.79 629.671 1111.81 628.549 1133.22Z" fill="#D72822" stroke="black" stroke-width="5"/>
<path d="M620.553 1024.05C567.357 1040.51 460.069 1030.91 413.074 1024.05C408.36 1023.39 411.11 1050.65 413.074 1064.36C502.294 1082.16 593.338 1062.26 627.707 1050.08L620.553 1024.05Z" fill="#24B924" stroke="black" stroke-width="5"/>
<path d="M510.29 1418.76C499.853 1419.1 488.546 1407.42 484.197 1401.54C478.811 1401.54 481.953 1415.54 484.197 1422.54C524.178 1457.39 535.541 1442.69 549.008 1430.52C562.476 1418.34 539.75 1385.17 541.433 1394.4C543.116 1403.64 523.337 1418.34 510.29 1418.76Z" fill="#05BA05" stroke="black" stroke-width="5"/>
<path d="M553.638 1409.52C555.658 1401.12 549.99 1382.23 546.904 1373.83C537.814 1370.47 538.066 1383.63 539.329 1390.63L553.638 1409.52Z" fill="#05BA05" stroke="black" stroke-width="5"/>
<path d="M448.035 1224.83C420.907 1229.46 420.141 1250.27 423.148 1260.1C425.519 1267.76 432.726 1285.31 442.59 1294.27C437.732 1276.69 432.141 1244.58 451.03 1242.46C467.715 1240.58 473.254 1273.33 473.771 1288.96C480.501 1281.36 482.842 1259.74 483.171 1249.88C482.762 1239.6 475.162 1220.21 448.035 1224.83Z" fill="#531BC1"/>
<path d="M449.911 1291.41C448.616 1283.79 454.013 1281.56 456.873 1281.4C460.927 1280.71 464.476 1282.72 465.718 1290.03C466.71 1295.87 462.178 1298.14 459.787 1298.55C457.035 1299.35 451.206 1299.03 449.911 1291.41Z" fill="#521BC1"/>
<path d="M448.035 1224.83C420.907 1229.46 420.141 1250.27 423.148 1260.1C425.519 1267.76 432.726 1285.31 442.59 1294.27C437.732 1276.69 432.141 1244.58 451.03 1242.46C467.715 1240.58 473.254 1273.33 473.771 1288.96C480.501 1281.36 482.842 1259.74 483.171 1249.88C482.762 1239.6 475.162 1220.21 448.035 1224.83Z" stroke="black" stroke-width="3"/>
<path d="M449.911 1291.41C448.616 1283.79 454.013 1281.56 456.873 1281.4C460.927 1280.71 464.476 1282.72 465.718 1290.03C466.71 1295.87 462.178 1298.14 459.787 1298.55C457.035 1299.35 451.206 1299.03 449.911 1291.41Z" stroke="black" stroke-width="3"/>
<path d="M449.867 1100.22C415.764 1103.92 413.231 1129.55 416.227 1141.9C418.596 1151.52 426.232 1173.71 437.825 1185.49C433.113 1163.44 428.593 1123.41 452.256 1122.19C473.159 1121.1 477.566 1161.92 477.024 1181.24C485.974 1172.36 490.527 1145.86 491.685 1133.71C491.955 1121.01 483.97 1096.52 449.867 1100.22Z" fill="#531BC1"/>
<path d="M447.151 1182.5C446.118 1173 453.001 1170.66 456.572 1170.67C461.668 1170.12 465.932 1172.86 466.923 1181.96C467.715 1189.24 461.902 1191.71 458.897 1192.04C455.412 1192.82 448.184 1192 447.151 1182.5Z" fill="#521BC1"/>
<path d="M449.867 1100.22C415.764 1103.92 413.231 1129.55 416.227 1141.9C418.596 1151.52 426.232 1173.71 437.825 1185.49C433.113 1163.44 428.593 1123.41 452.256 1122.19C473.159 1121.1 477.566 1161.92 477.024 1181.24C485.974 1172.36 490.527 1145.86 491.685 1133.71C491.955 1121.01 483.97 1096.52 449.867 1100.22Z" stroke="black" stroke-width="3"/>
<path d="M447.151 1182.5C446.118 1173 453.001 1170.66 456.572 1170.67C461.668 1170.12 465.932 1172.86 466.923 1181.96C467.715 1189.24 461.902 1191.71 458.897 1192.04C455.412 1192.82 448.184 1192 447.151 1182.5Z" stroke="black" stroke-width="3"/>
<path d="M580.348 1146.26C559.278 1150.03 558.8 1166.05 561.194 1173.59C563.081 1179.46 568.786 1192.91 576.508 1199.72C572.63 1186.24 568.099 1161.58 582.778 1159.79C595.743 1158.22 600.236 1183.37 600.727 1195.39C605.918 1189.49 607.616 1172.84 607.816 1165.25C607.439 1157.35 601.419 1142.49 580.348 1146.26Z" fill="#531BC1"/>
<path d="M582.185 1197.46C581.135 1191.61 585.319 1189.86 587.543 1189.71C590.691 1189.15 593.463 1190.66 594.47 1196.27C595.275 1200.76 591.763 1202.55 589.906 1202.88C587.77 1203.51 583.236 1203.32 582.185 1197.46Z" fill="#521BC1"/>
<path d="M580.348 1146.26C559.278 1150.03 558.8 1166.05 561.194 1173.59C563.081 1179.46 568.786 1192.91 576.508 1199.72C572.63 1186.24 568.099 1161.58 582.778 1159.79C595.743 1158.22 600.236 1183.37 600.727 1195.39C605.918 1189.49 607.616 1172.84 607.816 1165.25C607.439 1157.35 601.419 1142.49 580.348 1146.26Z" stroke="black" stroke-width="3"/>
<path d="M582.185 1197.46C581.135 1191.61 585.319 1189.86 587.543 1189.71C590.691 1189.15 593.463 1190.66 594.47 1196.27C595.275 1200.76 591.763 1202.55 589.906 1202.88C587.77 1203.51 583.236 1203.32 582.185 1197.46Z" stroke="black" stroke-width="3"/>
<path d="M579.314 1239.39C557.2 1234.96 550.367 1251.07 549.714 1259.68C549.228 1266.39 549.467 1282.3 554.315 1292.26C555.878 1277.02 561.243 1250.16 576.313 1254.11C589.624 1257.59 584.029 1284.93 579.733 1297.35C587.155 1293.39 595.433 1277.11 598.644 1269.47C601.415 1261.29 601.427 1243.81 579.314 1239.39Z" fill="#531BC1"/>
<path d="M560.767 1292.19C562.064 1285.82 566.856 1285.68 569.089 1286.4C572.394 1287.06 574.503 1289.69 573.26 1295.79C572.265 1300.67 568.119 1301.11 566.17 1300.72C563.829 1300.53 559.47 1298.55 560.767 1292.19Z" fill="#521BC1"/>
<path d="M579.314 1239.39C557.2 1234.96 550.367 1251.07 549.714 1259.68C549.228 1266.39 549.467 1282.3 554.315 1292.26C555.878 1277.02 561.243 1250.16 576.313 1254.11C589.624 1257.59 584.029 1284.93 579.733 1297.35C587.155 1293.39 595.433 1277.11 598.644 1269.47C601.415 1261.29 601.427 1243.81 579.314 1239.39Z" stroke="black" stroke-width="3"/>
<path d="M560.767 1292.19C562.064 1285.82 566.856 1285.68 569.089 1286.4C572.394 1287.06 574.503 1289.69 573.26 1295.79C572.265 1300.67 568.119 1301.11 566.17 1300.72C563.829 1300.53 559.47 1298.55 560.767 1292.19Z" stroke="black" stroke-width="3"/>
<path d="M406.34 964.844C402.3 962.828 412.232 952.807 417.703 948.048C415.01 921.174 547.325 923.413 613.819 927.893L619.29 948.048C624.2 949.308 633.515 953.087 631.495 958.125C629.475 963.164 610.733 960.225 601.615 958.125C599.09 961.485 580.572 950.567 575.101 948.048C569.63 945.528 571.313 958.125 568.788 961.905C566.263 965.684 536.383 948.048 530.491 948.048C524.599 948.048 528.808 964.844 526.282 964.844C524.262 964.844 516.743 960.365 513.236 958.125C513.236 960.365 511.132 964.844 502.715 964.844C494.298 964.844 486.302 958.125 483.356 954.766C483.636 960.365 482.009 971.562 473.255 971.562C464.502 971.562 455.299 962.604 451.792 958.125C447.163 961.905 436.052 969.883 428.645 971.562C419.386 973.662 411.39 967.363 406.34 964.844Z" fill="#98FFFB" stroke="black" stroke-width="5"/>
<path d="M418.124 948.048L415.178 936.291C492.278 865.075 579.73 900.179 613.819 926.633L610.452 936.291C586.885 911.096 472.414 933.631 418.124 948.048Z" fill="#E3DC1A" stroke="black" stroke-width="5"/>
<path d="M408.024 890.521C415.767 871.373 474.658 820.957 503.136 798.142C535.401 818.297 601.53 860.456 607.927 867.846C614.324 875.236 615.082 910.956 614.661 927.892C561.129 893.964 459.367 918.514 415.178 935.031C411.811 930.328 409.005 903.398 408.024 890.521Z" fill="#30EE7F" stroke="black" stroke-width="5"/>
<path d="M466.89 892.2L489.145 917.395L525.677 909.416L560.949 892.2L529.456 898.079L543.733 879.183L517.279 892.2L500.483 850.63L495.024 892.2L471.929 879.183L483.267 898.079L466.89 892.2Z" fill="#E3DC1A" stroke="black" stroke-width="5"/>
<path d="M828.847 936.71C828.847 928.984 820.449 927.612 816.25 927.892C803.933 944.128 779.299 977.861 779.299 982.899C779.299 987.938 787.977 991.438 792.316 992.557C804.493 977.161 828.847 944.436 828.847 936.71Z" fill="#E3DC1A" stroke="black" stroke-width="5"/>
<path d="M620.553 886.322C617.523 882.626 619.29 861.827 620.553 851.89C637.05 797.806 684.662 798.842 706.406 806.12C712.579 809.899 729.132 825.772 745.966 859.028C762.8 892.284 766.52 888.281 784.757 891.361L796.433 911.435C803.007 918.812 809.64 926.473 808.692 932.511C806.072 949.189 781.917 979.711 772.059 981.64C750.596 985.839 685.785 969.043 672.318 932.511C658.85 895.979 624.341 890.941 620.553 886.322Z" fill="#30EEE7"/>
<path d="M784.757 891.361C766.52 888.281 762.8 892.284 745.966 859.028C729.132 825.772 712.579 809.899 706.406 806.12C684.662 798.842 637.05 797.806 620.553 851.89C619.29 861.827 617.523 882.626 620.553 886.322C624.341 890.941 658.85 895.979 672.318 932.511C685.785 969.043 750.596 985.839 772.059 981.64C781.917 979.711 806.072 949.189 808.692 932.511M784.757 891.361C780.755 900.958 810.635 920.139 808.692 932.511M784.757 891.361L808.692 932.511" stroke="black" stroke-width="5"/>
<path d="M679.472 782.186C648.834 773.788 617.607 814.238 605.823 835.513L618.449 850.63C648.077 808.64 687.468 801.781 703.46 803.601L679.472 782.186Z" fill="#E3DC1A" stroke="black" stroke-width="5"/>
<path d="M344.475 1028.25C339.088 1012.46 303.793 1011.87 286.819 1013.55C283.115 1016.24 283.312 1024.47 283.873 1028.25L341.95 1040.01C344.643 1037.66 344.756 1031.19 344.475 1028.25Z" fill="#E3DC1A" stroke="black" stroke-width="5"/>
<path d="M309.124 898.919C306.43 872.045 319.785 857.208 326.799 853.149C338.101 840.972 405.498 853.149 411.39 859.868C416.104 865.242 409.426 897.099 405.498 912.356C406.508 933.855 397.783 949.587 393.294 954.766C391.61 969.882 385.017 975.621 381.931 976.601C382.604 1001.12 358.363 1019.85 346.159 1026.15C334.038 1017.08 300.987 1013.69 285.977 1013.13C275.54 1004.06 274.614 980.8 275.456 970.302L295.236 945.948C292.879 935.534 303.512 910.256 309.124 898.919Z" fill="#30EEE7" stroke="black" stroke-width="5"/>
<path d="M413.915 836.773C390.348 811.579 345.457 823.476 325.958 832.574V852.73C345.148 840.972 388.945 851.47 408.444 858.188L413.915 836.773Z" fill="#E3DC1A" stroke="black" stroke-width="5"/>
<path d="M823.808 978.7C835.23 953.842 829.967 948.747 825.908 949.307L796.095 989.198C808.524 988.19 819.749 981.78 823.808 978.7Z" fill="#30EEE7" stroke="black" stroke-width="5"/>
<path d="M295.99 1062.68C285.24 1055.96 288.431 1038.61 291.371 1030.77L337.14 1040.43C321.016 1062.6 302.988 1064.5 295.99 1062.68Z" fill="#30EEE7" stroke="black" stroke-width="5"/>
<path d="M840.015 246C803.132 29.6 553.036 20.8333 432.599 43.5L498.747 620.5C627.871 585.833 876.898 462.4 840.015 246Z" fill="#8CECF5" stroke="black" stroke-width="5"/>
<path d="M212.103 679.5C192.458 637.1 171.01 643.5 169.507 621.5C135.43 606.7 109.204 549 100.351 522C124.004 509.6 156.31 516.833 169.507 522L212.103 306C269.899 285.333 413.355 225.1 524.806 149.5C664.119 55 803.433 417.5 825.984 394.5C844.024 376.1 987.18 344.167 1056.5 330.5C1067.53 388.5 912.177 529.5 897.144 543.5C885.117 554.7 844.692 558.833 825.984 559.5C818.968 595 737.284 665.5 639.564 740.5C541.844 815.5 245.678 773 200.076 740.5C163.593 714.5 192.893 689 212.103 679.5Z" fill="#FFE2BB" stroke="black" stroke-width="5"/>
<path d="M825.984 567.5C825.984 541.1 849.37 533.167 861.063 532.5C872.756 532.5 896.141 539.5 896.141 567.5C896.141 595.5 872.756 602.5 861.063 602.5C849.37 601.833 825.984 593.9 825.984 567.5Z" fill="#4BC6FF" stroke="black" stroke-width="5"/>
<path d="M743.799 155C704.109 86.6001 618.684 75.5001 580.932 78.5001L553.871 190.5C633.718 207.167 783.488 223.4 743.799 155Z" fill="#F3B656" stroke="black" stroke-width="5"/>
<path d="M192.559 238C140.842 194.4 60.0939 219.833 26.1843 238C101.52 196.167 262.115 101 301.804 54.9999C343.953 31.6364 378.441 44.2841 391.49 54.1967C377.132 42.8066 349.646 18.2788 346.906 5C383.488 21.6666 467.978 54.9999 513.28 54.9999C569.907 54.9999 643.072 120 638.562 144.5C674.81 132 765.147 133.2 836.507 238C872.187 271.2 892.466 268.5 898.146 263C888.792 273.833 865.172 296.6 845.528 301C820.972 306.5 896.643 315.5 904.159 315C910.173 314.6 879.938 337.5 864.069 349L882.611 376.5L831.997 390.5C832.498 433.5 843.323 518.8 882.611 516C869.359 524.921 842.615 539.172 837.128 528.187C843.205 545.72 845.299 583.727 808.444 608.5C607.659 651.5 203.383 664 192.559 620C181.734 576 179.362 580.5 179.529 557C168.337 543.333 138.738 516 109.873 516C119.895 512.5 139.64 502.1 138.437 488.5C137.234 474.9 174.017 315.833 192.559 238Z" fill="#F0B24F"/>
<path d="M192.559 238C140.842 194.4 60.0939 219.833 26.1843 238C101.52 196.167 262.115 101 301.804 54.9999C343.953 31.6364 378.441 44.2841 391.49 54.1967C377.132 42.8066 349.646 18.2788 346.906 5C383.488 21.6666 467.978 54.9999 513.28 54.9999C569.907 54.9999 643.072 120 638.562 144.5C674.81 132 765.147 133.2 836.507 238C872.187 271.2 892.466 268.5 898.146 263C888.792 273.833 865.172 296.6 845.528 301C820.972 306.5 896.643 315.5 904.159 315C910.173 314.6 879.938 337.5 864.069 349L882.611 376.5L831.997 390.5C832.498 433.5 843.323 518.8 882.611 516C869.359 524.921 842.615 539.172 837.128 528.187C843.205 545.72 845.299 583.727 808.444 608.5C607.659 651.5 203.383 664 192.559 620C181.734 576 179.362 580.5 179.529 557C168.337 543.333 138.738 516 109.873 516C119.895 512.5 139.64 502.1 138.437 488.5C137.234 474.9 174.017 315.833 192.559 238Z" fill="#FEC871" fill-opacity="0.2"/>
<path d="M26.1843 238C60.0939 219.833 140.842 194.4 192.559 238C174.017 315.833 137.234 474.9 138.437 488.5C139.64 502.1 119.895 512.5 109.873 516C138.738 516 168.337 543.333 179.529 557C179.362 580.5 181.734 576 192.559 620C203.383 664 607.659 651.5 808.444 608.5C846.53 582.9 843.022 543.167 836.507 526.5C840.115 540.5 868.746 525.333 882.611 516C843.323 518.8 832.498 433.5 831.997 390.5L882.611 376.5L864.069 349C879.938 337.5 910.173 314.6 904.159 315C896.643 315.5 820.972 306.5 845.528 301C865.172 296.6 888.791 273.833 898.146 263C892.466 268.5 872.187 271.2 836.507 238C765.147 133.2 674.81 132 638.562 144.5C643.072 120 569.907 54.9999 513.28 54.9999C467.978 54.9999 383.488 21.6666 346.906 5C349.712 18.6 378.477 44 392.508 54.9999C380.314 44.9999 345.102 30.9999 301.804 54.9999C262.115 101 101.52 196.167 26.1843 238Z" stroke="black" stroke-width="5"/>
<path d="M190.362 590.092C135.473 475.194 269.835 303.823 343.877 232.5C343.877 232.5 496.618 245.443 601.166 254.972C705.713 264.5 711.591 453.688 758.331 568C783.981 630.729 559.571 686.492 483.67 705.87C408.771 715.152 245.25 704.991 190.362 590.092Z" fill="#FFE2BB"/>
<path d="M440.116 446.5C452.944 434.1 433.1 402 421.574 387.5C388.499 396.5 393.01 437 393.511 446.5C394.012 456 424.079 462 440.116 446.5Z" fill="#F4ED1A" stroke="black" stroke-width="5"/>
<path d="M413.055 396.5C405.371 403.833 393.811 423.7 409.046 444.5C419.068 438.5 433.902 420.5 413.055 396.5Z" fill="#FF0000" stroke="black" stroke-width="5"/>
<path d="M480.707 368.5C477.5 362.1 483.714 357.5 487.221 356C490.395 356 496.943 357.3 497.745 362.5C498.747 369 492.734 372.5 490.729 372.5C488.725 372.5 484.716 376.5 480.707 368.5Z" fill="#F4ED1A" stroke="black" stroke-width="5"/>
<path d="M506.401 355.214C502.303 347.169 510.243 341.386 514.725 339.5C518.78 339.5 527.147 341.134 528.171 347.671C529.452 355.843 521.768 360.243 519.207 360.243C516.646 360.243 511.523 365.271 506.401 355.214Z" fill="#F4ED1A" stroke="black" stroke-width="5"/>
<path d="M535.367 344.786C531.626 337.471 538.875 332.214 542.967 330.5C546.67 330.5 554.309 331.986 555.244 337.929C556.414 345.357 549.398 349.357 547.06 349.357C544.721 349.357 540.044 353.929 535.367 344.786Z" fill="#F4ED1A" stroke="black" stroke-width="5"/>
<path d="M560.424 328.786C556.682 321.471 563.932 316.214 568.024 314.5C571.726 314.5 579.365 315.986 580.301 321.929C581.47 329.357 574.455 333.357 572.116 333.357C569.778 333.357 565.101 337.929 560.424 328.786Z" fill="#F4ED1A" stroke="black" stroke-width="5"/>
<path d="M459.047 378.643C455.84 372.426 462.054 367.957 465.562 366.5C468.735 366.5 475.283 367.763 476.085 372.814C477.087 379.129 471.074 382.529 469.069 382.529C467.065 382.529 463.056 386.414 459.047 378.643Z" fill="#F4ED1A" stroke="black" stroke-width="5"/>
<path d="M435.996 390.643C432.789 384.426 439.002 379.957 442.51 378.5C445.684 378.5 452.231 379.763 453.033 384.814C454.035 391.129 448.022 394.529 446.018 394.529C444.013 394.529 440.004 398.414 435.996 390.643Z" fill="#F4ED1A" stroke="black" stroke-width="5"/>
<path d="M100.351 773.5C164.095 711.1 188.048 649.167 192.057 626C198.739 619.333 217.515 607.4 239.163 613C266.224 620 353.922 628 399.023 588.5C445.628 588.5 471.687 616.5 649.086 580C708.82 547.2 722.751 528 722.25 522.5L832.498 580L734.277 679C697.695 719.5 534.829 845 502.756 845C470.684 845 440.116 810.5 393.511 784C356.227 762.8 182.536 768.167 100.351 773.5Z" fill="#8EFEE6" fill-opacity="0.9" stroke="black" stroke-width="5"/>
<path d="M314.333 643C292.283 650.2 243.34 640 221.624 634C216.947 637 211.601 646.4 227.638 660C243.674 673.6 325.858 665.667 364.946 660C367.118 657 379.78 649.4 413.055 643C456.653 652 490.228 657 506.264 660C522.3 663 626.535 639 647.081 634C663.518 630 712.061 597.333 734.277 581.5C749.144 557.167 765.247 519.4 710.724 563C642.571 617.5 509.271 634 484.716 634C460.161 634 432.599 613.5 413.055 611.5C393.511 609.5 341.895 634 314.333 643Z" fill="#CAF7FF" stroke="black" stroke-width="5"/>
<path d="M249.687 772C252.894 628 228.974 520 216.613 484H159.484C164.997 536 163.393 652.6 112.879 703C128.581 689.5 161.789 656.6 169.006 633C142.78 726.5 108.57 927.7 181.534 984.5L154.473 937.5C179.696 968.833 242.371 1022.1 291.281 984.5C259.209 979.7 236.825 951.167 229.642 937.5C286.971 958.3 329.032 939.167 342.897 927C314.667 934.833 256.502 914.8 249.687 772Z" fill="#F3B656" stroke="black" stroke-width="5"/>
<path d="M750.313 719C726.66 678.6 703.374 535.833 694.688 469.5C723.754 465.167 780.782 460.5 776.372 476.5C770.86 496.5 792.909 586 818.467 625C838.913 656.2 858.056 717.667 865.072 744.5C869.582 898 714.232 903.5 736.282 896.5C758.331 889.5 791.907 821 776.372 836C763.944 848 733.442 854.667 719.745 856.5C759.434 800.9 756.661 741.667 750.313 719Z" fill="#F3B656" stroke="black" stroke-width="5"/>
<path d="M633.05 238.5C610.499 306.667 592.258 451 699.699 483C749.01 177.4 675.812 192.667 633.05 238.5Z" fill="#F3B656" stroke="black" stroke-width="5"/>
<path d="M614.508 317.5C556.778 325.9 506.932 293 489.226 275.5L448.134 197L573.415 167.5C617.515 182.333 687.472 233.1 614.508 317.5Z" fill="#F3B656" stroke="black" stroke-width="5"/>
<path d="M18.1663 468.5C16.1618 308.9 150.631 241 218.116 227L175.52 382C66.0741 393.6 25.015 444.5 18.1663 468.5Z" fill="#F3B656" stroke="black" stroke-width="5"/>
<path d="M829.992 579.5C677.249 577.9 674.476 382.167 692.182 284.5C723.052 237.7 744.133 307.667 750.814 348.5C768.354 340 800.626 354.7 789.401 481.5C797.018 545.1 819.636 573.333 829.992 579.5Z" fill="#F3B656" stroke="black" stroke-width="5"/>
<path d="M208.094 232.5L228.139 226L215.109 394.5C201.245 390.667 169.807 380 154.974 368C140.141 356 184.206 272.5 208.094 232.5Z" fill="#F3B656"/>
<path d="M173.516 378.5C201.98 252.5 279.087 199 311.827 186.5C322.685 228 339.188 316.6 318.342 339C297.495 361.4 195.398 432.333 146.956 465L144.45 466.5C117.59 475.3 79.4709 462.833 63.7689 455.5C71.2858 456.167 145.453 420.5 173.516 378.5Z" fill="#F3B656" stroke="black" stroke-width="5"/>
<path d="M304.811 200L323.854 167.5C330.202 167.5 345.703 170.5 356.928 182.5C370.96 197.5 349.913 251 323.854 250.5C303.007 250.1 302.473 216.667 304.811 200Z" fill="#F3B656"/>
<path d="M235.154 336C211.1 444 126.577 482.333 87.3219 488C403.233 504.8 492.233 308.667 497.244 208.5L423.578 165C373.466 180.5 265.623 236.4 235.154 336Z" fill="#F3B656" stroke="black" stroke-width="5"/>
<path d="M701.704 327.5C694.087 311.1 692.517 280 692.684 266.5L625.031 334.5C624.363 329.5 619.92 314.8 607.492 296C591.957 272.5 649.587 230 649.587 212C649.587 194 668.629 204 716.738 192.5C764.846 181 765.848 332.5 764.345 334.5C763.142 336.1 749.144 347.167 742.295 352.5C731.939 351 709.321 343.9 701.704 327.5Z" fill="#F3B656"/>
<path d="M470.684 219C456.653 223.8 428.088 190.667 415.56 173.5L468.68 133L532.824 108.5L571.912 123L665.623 228L563.393 237.5L505.262 201.5C499.583 205.333 484.716 214.2 470.684 219Z" fill="#F3B656"/>
<path d="M511.276 499.5C500.752 458 517.79 433.833 530.82 426C550.364 426 562.391 448 566.901 467.5C575.921 481.5 569.406 560 544.35 553.5C524.305 548.3 513.948 515.333 511.276 499.5Z" fill="#37C7FB"/>
<path d="M331.872 560.5C375.57 529.7 343.398 470 321.849 444C318.007 441.5 308.419 439.8 300.802 453C283.764 466 279.254 575 331.872 560.5Z" fill="#37C7FB"/>
<path d="M511.276 499.5C500.752 458 517.79 433.833 530.82 426C550.364 426 562.391 448 566.901 467.5C575.921 481.5 569.406 560 544.35 553.5C524.305 548.3 513.948 515.333 511.276 499.5Z" stroke="black" stroke-width="5"/>
<path d="M331.872 560.5C375.57 529.7 343.398 470 321.849 444C318.007 441.5 308.419 439.8 300.802 453C283.764 466 279.254 575 331.872 560.5Z" stroke="black" stroke-width="5"/>
<path d="M339.389 441.5C314.083 428.737 288.6 439.133 270.734 452.43H280.697C295.358 442.815 315.908 435.518 339.389 441.5Z" fill="black"/>
<path d="M252.193 470C256.44 464.741 262.844 458.303 270.734 452.43M261.213 470C265.116 464.912 271.829 458.247 280.697 452.43M270.734 452.43C288.6 439.133 314.083 428.737 339.389 441.5C315.908 435.518 295.358 442.815 280.697 452.43M270.734 452.43H280.697" stroke="black" stroke-width="5"/>
<path d="M592.458 424.5C567.602 395.7 510.942 407.167 485.718 416.5C468.88 421.407 462.666 430.211 461.664 434C465.673 436.4 482.043 431 489.727 428C497.745 420.8 561.555 422.667 592.458 424.5Z" fill="black"/>
<path d="M456.653 419L485.718 416.5M485.718 416.5C510.942 407.167 567.602 395.7 592.458 424.5C561.555 422.667 497.745 420.8 489.727 428C482.043 431 465.673 436.4 461.664 434C462.666 430.211 468.88 421.407 485.718 416.5Z" stroke="black" stroke-width="5"/>
<path d="M595.966 427.5C545.024 407.242 517.711 414.935 469.181 431.5" stroke="black" stroke-width="5"/>
<path d="M535.831 466.5C521.799 446.1 498.246 459.333 488.224 468.5C486.219 475.5 491.231 482.5 516.287 480C536.332 478 537.668 470.167 535.831 466.5Z" fill="white" stroke="black" stroke-width="5"/>
<path d="M312.01 487.895C294.426 470.449 273.745 487.816 265.603 498.68C264.936 505.929 271.163 511.879 295.318 504.781C314.643 499.102 314.498 491.157 312.01 487.895Z" fill="white" stroke="black" stroke-width="5"/>
<path d="M836.006 430.5C892.968 403.833 1010 352.5 1022.43 360.5C1034.85 368.5 1023.59 384.167 1016.41 391" stroke="black" stroke-width="5"/>
<path d="M874.092 512.5L915.184 453.5" stroke="black" stroke-width="5"/>
<path d="M161.489 566.5L117.891 534C118.726 542.333 121.699 558.5 126.911 556.5" stroke="black" stroke-width="5"/>
</svg>
